<svg width="56" height="50" viewBox="0 0 56 50" fill="none" xmlns="http://www.w3.org/2000/svg">
<path d="M17.1813 0C19.5586 0 21.5036 0.360022 23.0164 1.08006C24.5653 1.7641 25.934 2.57415 27.1227 3.51021C27.843 4.05024 28.3833 4.12224 28.7435 3.72622C29.1397 3.29419 29.4099 2.30414 29.554 0.756047H30.7966C30.7246 2.08812 30.6706 3.70822 30.6346 5.61633C30.5985 7.52444 30.5805 10.0446 30.5805 13.1768H29.3379C29.0857 11.6287 28.8516 10.4046 28.6355 9.50455C28.4194 8.5685 28.1492 7.77645 27.825 7.12842C27.5369 6.48038 27.1407 5.83234 26.6364 5.1843C25.5198 3.70822 24.115 2.64615 22.4221 1.99812C20.7292 1.31408 18.9462 0.972057 17.0732 0.972057C15.3083 0.972057 13.7054 1.42208 12.2646 2.32214C10.8599 3.18619 9.63521 4.44626 8.59064 6.10236C7.5821 7.75845 6.78967 9.75657 6.21336 12.0967C5.67307 14.4368 5.40292 17.065 5.40292 19.9812C5.40292 23.0053 5.70909 25.6875 6.32142 28.0276C6.93375 30.3318 7.7802 32.2759 8.86079 33.86C9.97739 35.4441 11.2741 36.6501 12.7509 37.4782C14.2637 38.2702 15.8846 38.6662 17.6135 38.6662C19.2344 38.6662 20.9273 38.3422 22.6923 37.6942C24.4572 37.0462 25.844 36.0021 26.8525 34.562C27.6449 33.5179 28.1852 32.3839 28.4734 31.1598C28.7976 29.9357 29.0857 28.2256 29.3379 26.0295H30.5805C30.5805 29.3057 30.5985 31.9519 30.6346 33.968C30.6706 35.9481 30.7246 37.6222 30.7966 38.9903H29.554C29.4099 37.4422 29.1578 36.4701 28.7976 36.0741C28.4734 35.6781 27.9151 35.7321 27.1227 36.2361C25.7899 37.1722 24.3672 38.0002 22.8544 38.7202C21.3776 39.4043 19.4685 39.7463 17.1273 39.7463C13.7054 39.7463 10.6978 38.9723 8.10438 37.4242C5.547 35.8761 3.54792 33.644 2.10714 30.7278C0.70238 27.8116 0 24.3014 0 20.1972C0 16.1649 0.738399 12.6367 2.2152 9.61256C3.692 6.58838 5.70909 4.23025 8.26647 2.53815C10.8599 0.84605 13.8315 0 17.1813 0Z" fill="currentColor"/>
<path d="M39.359 49.1429C37.45 49.1429 35.649 48.9448 33.9561 48.5488C32.2632 48.1528 30.8944 47.5228 29.8499 46.6587C28.8413 45.8307 28.337 44.7686 28.337 43.4725C28.337 42.2125 28.8413 41.1324 29.8499 40.2323C30.8584 39.3323 32.2272 38.6482 33.9561 38.1802L34.2803 39.0443C33.4878 39.2963 32.8575 39.8003 32.3892 40.5564C31.921 41.3124 31.6869 42.1584 31.6869 43.0945C31.6869 44.7506 32.4433 46.0107 33.9561 46.8747C35.5049 47.7748 37.504 48.2248 39.9533 48.2248C41.5742 48.2248 43.1591 48.0088 44.7079 47.5768C46.2567 47.1807 47.5354 46.4967 48.544 45.5246C49.5525 44.5526 50.0568 43.2745 50.0568 41.6904C50.0568 40.5024 49.6246 39.5303 48.7601 38.7743C47.9316 37.9822 46.2747 37.5862 43.7894 37.5862H39.7912C38.6386 37.5862 37.522 37.4962 36.4414 37.3162C35.3608 37.1362 34.4784 36.7581 33.794 36.1821C33.1096 35.6061 32.7674 34.724 32.7674 33.5359C32.7674 32.3119 33.2717 31.1418 34.2803 30.0257C35.2888 28.8737 37.1438 27.7036 39.8453 26.5155L40.4936 27.0016C39.269 27.6496 38.2064 28.3156 37.3059 28.9997C36.4054 29.6477 35.9552 30.4218 35.9552 31.3218C35.9552 32.4739 36.8196 33.0499 38.5486 33.0499H45.3022C46.815 33.0499 48.2018 33.2659 49.4625 33.698C50.7592 34.13 51.8037 34.814 52.5962 35.7501C53.3886 36.6861 53.7848 37.9102 53.7848 39.4223C53.7848 41.1144 53.2445 42.6985 52.1639 44.1746C51.0833 45.6507 49.4625 46.8387 47.3013 47.7388C45.1762 48.6748 42.5287 49.1429 39.359 49.1429ZM39.6292 27.4876C37.8642 27.4876 36.2613 27.1996 34.8206 26.6235C33.3798 26.0115 32.2452 25.0755 31.4167 23.8154C30.5883 22.5553 30.174 20.9352 30.174 18.9551C30.174 16.975 30.5883 15.3549 31.4167 14.0948C32.2452 12.8347 33.3798 11.9167 34.8206 11.3407C36.2613 10.7286 37.8642 10.4226 39.6292 10.4226C41.4301 10.4226 43.033 10.7286 44.4378 11.3407C45.8785 11.9167 47.0131 12.8347 47.8416 14.0948C48.67 15.3549 49.0843 16.975 49.0843 18.9551C49.0843 20.9352 48.67 22.5553 47.8416 23.8154C47.0131 25.0755 45.8785 26.0115 44.4378 26.6235C43.033 27.1996 41.4301 27.4876 39.6292 27.4876ZM39.6292 26.5155C40.9979 26.5155 42.0605 25.9755 42.8169 24.8954C43.6093 23.8154 44.0055 21.8353 44.0055 18.9551C44.0055 16.0749 43.6093 14.0948 42.8169 13.0148C42.0605 11.9347 40.9979 11.3947 39.6292 11.3947C38.2964 11.3947 37.2339 11.9347 36.4414 13.0148C35.649 14.0948 35.2528 16.0749 35.2528 18.9551C35.2528 21.8353 35.649 23.8154 36.4414 24.8954C37.2339 25.9755 38.2964 26.5155 39.6292 26.5155ZM47.4094 14.9049L46.4368 14.5268C46.9411 13.3028 47.8056 12.2227 49.0302 11.2867C50.2549 10.3506 51.5336 9.88258 52.8663 9.88258C53.8028 9.88258 54.5592 10.1526 55.1355 10.6926C55.7118 11.1967 56 11.9707 56 13.0148C56 14.1308 55.6938 14.9229 55.0815 15.3909C54.5052 15.8229 53.9109 16.0389 53.2985 16.0389C52.7582 16.0389 52.254 15.8589 51.7857 15.4989C51.3175 15.1029 51.0473 14.4908 50.9753 13.6628C50.9032 12.8347 51.1554 11.7727 51.7317 10.4766L52.4341 10.6386C50.9213 11.2147 49.8407 11.8267 49.1923 12.4747C48.544 13.0868 47.9496 13.8968 47.4094 14.9049Z" fill="currentColor"/>
</svg>
