<svg width="164" height="49" viewBox="0 0 164 49" fill="none" xmlns="http://www.w3.org/2000/svg">
<path d="M17.808 4.34402C19.92 4.34402 21.648 4.66403 22.992 5.30403C24.368 5.91203 25.584 6.63203 26.64 7.46403C27.28 7.94403 27.76 8.00803 28.08 7.65602C28.432 7.27203 28.672 6.39203 28.8 5.01603H29.904C29.84 6.20003 29.792 7.64003 29.76 9.33603C29.728 11.032 29.712 13.272 29.712 16.056H28.608C28.384 14.68 28.176 13.592 27.984 12.792C27.792 11.96 27.552 11.256 27.264 10.68C27.008 10.104 26.656 9.52803 26.208 8.95203C25.216 7.64003 23.968 6.69602 22.464 6.12002C20.96 5.51202 19.376 5.20802 17.712 5.20802C16.144 5.20802 14.72 5.60803 13.44 6.40803C12.192 7.17603 11.104 8.29603 10.176 9.76803C9.28 11.24 8.576 13.016 8.064 15.096C7.584 17.176 7.344 19.512 7.344 22.104C7.344 24.792 7.616 27.176 8.16 29.256C8.704 31.304 9.456 33.032 10.416 34.44C11.408 35.848 12.56 36.92 13.872 37.656C15.216 38.36 16.656 38.712 18.192 38.712C19.632 38.712 21.136 38.424 22.704 37.848C24.272 37.272 25.504 36.344 26.4 35.064C27.104 34.136 27.584 33.128 27.84 32.04C28.128 30.952 28.384 29.432 28.608 27.48H29.712C29.712 30.392 29.728 32.744 29.76 34.536C29.792 36.296 29.84 37.784 29.904 39H28.8C28.672 37.624 28.448 36.76 28.128 36.408C27.84 36.056 27.344 36.104 26.64 36.552C25.456 37.384 24.192 38.12 22.848 38.76C21.536 39.368 19.84 39.672 17.76 39.672C14.72 39.672 12.048 38.984 9.744 37.608C7.472 36.232 5.696 34.248 4.416 31.656C3.168 29.064 2.544 25.944 2.544 22.296C2.544 18.712 3.2 15.576 4.512 12.888C5.824 10.2 7.616 8.10403 9.888 6.60003C12.192 5.09603 14.832 4.34402 17.808 4.34402Z" fill="currentColor"/>
<path d="M30.7429 34.92C30.4869 35.848 30.4069 36.584 30.5029 37.128C30.5989 37.64 30.9509 37.896 31.5589 37.896C32.1989 37.896 32.7909 37.544 33.3349 36.84C33.9109 36.104 34.5189 34.824 35.1589 33L35.7829 31.224H36.6949L35.4949 34.728C35.0789 35.944 34.5669 36.92 33.9589 37.656C33.3829 38.36 32.7429 38.872 32.0389 39.192C31.3349 39.512 30.5669 39.672 29.7349 39.672C28.6789 39.672 27.8949 39.464 27.3829 39.048C26.9029 38.664 26.5989 38.136 26.4709 37.464C26.3749 36.792 26.3909 36.072 26.5189 35.304C26.6789 34.504 26.8709 33.72 27.0949 32.952L34.9189 6.98403C35.2389 5.89603 35.2069 5.09603 34.8229 4.58403C34.4389 4.07203 33.4629 3.81603 31.8949 3.81603L32.2309 2.80803C33.9909 2.77603 35.5429 2.60003 36.8869 2.28003C38.2309 1.92803 39.5269 1.44803 40.7749 0.840027L30.7429 34.92Z" fill="currentColor"/>
<path d="M46.5514 13.608C48.5994 13.608 50.4394 14.056 52.0714 14.952C53.7034 15.848 54.9994 17.256 55.9594 19.176C56.9514 21.096 57.4474 23.592 57.4474 26.664C57.4474 29.736 56.9514 32.232 55.9594 34.152C54.9994 36.04 53.7034 37.432 52.0714 38.328C50.4394 39.224 48.5994 39.672 46.5514 39.672C44.5354 39.672 42.6954 39.224 41.0314 38.328C39.3994 37.432 38.0874 36.04 37.0954 34.152C36.1354 32.232 35.6554 29.736 35.6554 26.664C35.6554 23.592 36.1354 21.096 37.0954 19.176C38.0874 17.256 39.3994 15.848 41.0314 14.952C42.6954 14.056 44.5354 13.608 46.5514 13.608ZM46.5514 14.568C44.7274 14.568 43.2234 15.512 42.0394 17.4C40.8874 19.288 40.3114 22.376 40.3114 26.664C40.3114 30.952 40.8874 34.04 42.0394 35.928C43.2234 37.784 44.7274 38.712 46.5514 38.712C48.3754 38.712 49.8634 37.784 51.0154 35.928C52.1994 34.04 52.7914 30.952 52.7914 26.664C52.7914 22.376 52.1994 19.288 51.0154 17.4C49.8634 15.512 48.3754 14.568 46.5514 14.568Z" fill="currentColor"/>
<path d="M66.9922 13.608C69.8083 13.608 72.0003 14.472 73.5683 16.2C75.1683 17.896 75.9682 20.552 75.9682 24.168H59.0243L58.9762 23.256H71.3603C71.4243 21.688 71.2962 20.248 70.9762 18.936C70.6562 17.592 70.1442 16.52 69.4402 15.72C68.7682 14.92 67.8882 14.52 66.8002 14.52C65.3282 14.52 64.0163 15.256 62.8643 16.728C61.7443 18.2 61.0722 20.536 60.8482 23.736L60.9922 23.928C60.9282 24.408 60.8802 24.936 60.8482 25.512C60.8162 26.088 60.8002 26.664 60.8002 27.24C60.8002 29.416 61.1523 31.288 61.8563 32.856C62.5602 34.424 63.4722 35.624 64.5922 36.456C65.7442 37.256 66.9282 37.656 68.1442 37.656C69.1042 37.656 70.0163 37.512 70.8802 37.224C71.7442 36.904 72.5443 36.392 73.2803 35.688C74.0163 34.984 74.6562 34.04 75.2002 32.856L76.1602 33.24C75.8083 34.296 75.2323 35.32 74.4323 36.312C73.6322 37.304 72.6242 38.12 71.4082 38.76C70.1922 39.368 68.7842 39.672 67.1842 39.672C64.8802 39.672 62.8963 39.144 61.2323 38.088C59.6003 37.032 58.3363 35.576 57.4403 33.72C56.5763 31.832 56.1442 29.672 56.1442 27.24C56.1442 24.424 56.5923 22.008 57.4883 19.992C58.3843 17.944 59.6483 16.376 61.2803 15.288C62.9123 14.168 64.8162 13.608 66.9922 13.608Z" fill="currentColor"/>
<path d="M90.4575 14.328L90.3135 15.288H75.3855L75.6255 14.328H90.4575ZM78.2655 34.92C77.9775 35.976 78.0415 36.744 78.4575 37.224C78.9055 37.672 79.4815 37.896 80.1855 37.896C80.8895 37.896 81.5935 37.592 82.2975 36.984C83.0335 36.376 83.7535 35.08 84.4575 33.096L85.1295 31.224H86.0415L85.0335 34.248C84.3295 36.328 83.4175 37.752 82.2975 38.52C81.2095 39.288 79.9295 39.672 78.4575 39.672C77.1455 39.672 76.1375 39.4 75.4335 38.856C74.7615 38.28 74.3615 37.48 74.2335 36.456C74.1055 35.432 74.2335 34.264 74.6175 32.952L82.0575 7.03203C82.8255 7.00003 83.5775 6.93603 84.3135 6.84003C85.0815 6.74403 85.7695 6.58403 86.3775 6.36003L78.2655 34.92Z" fill="currentColor"/>
<path d="M86.5665 39H82.3905L91.8945 6.98403C92.2145 5.89603 92.1665 5.09603 91.7505 4.58403C91.3665 4.07203 90.3905 3.81603 88.8225 3.81603L89.1105 2.80803C90.8705 2.77603 92.4545 2.60003 93.8625 2.28003C95.2705 1.92803 96.5665 1.44803 97.7505 0.840027L86.5665 39ZM87.9105 31.896C89.1265 28.536 90.2785 25.688 91.3665 23.352C92.4865 21.016 93.5905 19.144 94.6785 17.736C95.7665 16.296 96.8865 15.256 98.0385 14.616C99.1905 13.976 100.391 13.656 101.639 13.656C103.143 13.656 104.167 14.024 104.711 14.76C105.287 15.464 105.543 16.376 105.479 17.496C105.414 18.616 105.191 19.752 104.807 20.904L100.151 34.92C99.8945 35.752 99.7825 36.456 99.8145 37.032C99.8465 37.608 100.215 37.896 100.919 37.896C101.527 37.896 102.119 37.56 102.695 36.888C103.303 36.216 103.943 34.92 104.615 33L105.239 31.224H106.151L104.951 34.728C104.503 36.072 103.942 37.096 103.271 37.8C102.631 38.504 101.943 38.984 101.207 39.24C100.503 39.528 99.8145 39.672 99.1425 39.672C97.8625 39.672 96.9665 39.384 96.4545 38.808C95.9425 38.232 95.7185 37.432 95.7825 36.408C95.8785 35.384 96.1345 34.232 96.5505 32.952L101.111 19.224C101.271 18.744 101.415 18.184 101.543 17.544C101.671 16.904 101.639 16.36 101.447 15.912C101.287 15.432 100.823 15.192 100.055 15.192C99.2545 15.192 98.3905 15.56 97.4625 16.296C96.5665 17 95.6385 18.024 94.6785 19.368C93.7185 20.712 92.7745 22.328 91.8465 24.216C90.9185 26.104 90.0225 28.216 89.1585 30.552C88.3265 32.856 87.5425 35.352 86.8065 38.04L87.9105 31.896Z" fill="currentColor"/>
<path d="M109.661 2.28003C110.493 2.28003 111.213 2.58403 111.821 3.19203C112.429 3.80002 112.733 4.52003 112.733 5.35203C112.733 6.18403 112.429 6.90403 111.821 7.51203C111.213 8.12003 110.493 8.42403 109.661 8.42403C108.829 8.42403 108.109 8.12003 107.501 7.51203C106.893 6.90403 106.589 6.18403 106.589 5.35203C106.589 4.52003 106.893 3.80002 107.501 3.19203C108.109 2.58403 108.829 2.28003 109.661 2.28003ZM112.157 13.752V34.536C112.157 35.88 112.429 36.792 112.973 37.272C113.549 37.752 114.493 37.992 115.805 37.992V39C115.261 38.968 114.429 38.936 113.309 38.904C112.221 38.84 111.117 38.808 109.997 38.808C108.909 38.808 107.805 38.84 106.685 38.904C105.565 38.936 104.733 38.968 104.189 39V37.992C105.501 37.992 106.429 37.752 106.973 37.272C107.549 36.792 107.837 35.88 107.837 34.536V19.512C107.837 18.072 107.581 17.016 107.069 16.344C106.557 15.64 105.597 15.288 104.189 15.288V14.28C105.213 14.376 106.205 14.424 107.165 14.424C108.093 14.424 108.973 14.376 109.805 14.28C110.669 14.152 111.453 13.976 112.157 13.752Z" fill="currentColor"/>
<path d="M128.619 13.608C129.835 13.608 130.843 13.768 131.643 14.088C132.475 14.408 133.163 14.856 133.707 15.432C134.315 16.072 134.747 16.872 135.003 17.832C135.259 18.792 135.387 20.088 135.387 21.72V34.536C135.387 35.88 135.659 36.792 136.203 37.272C136.779 37.752 137.723 37.992 139.035 37.992V39C138.491 38.968 137.659 38.936 136.539 38.904C135.419 38.84 134.331 38.808 133.275 38.808C132.219 38.808 131.179 38.84 130.155 38.904C129.163 38.936 128.411 38.968 127.899 39V37.992C129.051 37.992 129.867 37.752 130.347 37.272C130.827 36.792 131.067 35.88 131.067 34.536V20.664C131.067 19.672 130.987 18.76 130.827 17.928C130.667 17.096 130.299 16.424 129.723 15.912C129.179 15.4 128.331 15.144 127.179 15.144C125.835 15.144 124.651 15.528 123.627 16.296C122.635 17.064 121.851 18.12 121.275 19.464C120.731 20.776 120.459 22.248 120.459 23.88V34.536C120.459 35.88 120.699 36.792 121.179 37.272C121.659 37.752 122.475 37.992 123.627 37.992V39C123.115 38.968 122.347 38.936 121.323 38.904C120.331 38.84 119.307 38.808 118.251 38.808C117.195 38.808 116.107 38.84 114.987 38.904C113.867 38.936 113.035 38.968 112.491 39V37.992C113.803 37.992 114.731 37.752 115.275 37.272C115.851 36.792 116.139 35.88 116.139 34.536V19.512C116.139 18.072 115.883 17.016 115.371 16.344C114.859 15.64 113.899 15.288 112.491 15.288V14.28C113.515 14.376 114.507 14.424 115.467 14.424C116.395 14.424 117.275 14.376 118.107 14.28C118.971 14.152 119.755 13.976 120.459 13.752V19.416C121.291 17.24 122.443 15.736 123.915 14.904C125.419 14.04 126.987 13.608 128.619 13.608Z" fill="currentColor"/>
<path d="M143.735 48.024C142.039 48.024 140.439 47.848 138.935 47.496C137.431 47.144 136.215 46.584 135.287 45.816C134.391 45.08 133.943 44.136 133.943 42.984C133.943 41.864 134.391 40.904 135.287 40.104C136.183 39.304 137.399 38.696 138.935 38.28L139.223 39.048C138.519 39.272 137.959 39.72 137.543 40.392C137.127 41.064 136.919 41.816 136.919 42.648C136.919 44.12 137.591 45.24 138.935 46.008C140.311 46.808 142.087 47.208 144.263 47.208C145.703 47.208 147.111 47.016 148.487 46.632C149.863 46.28 150.999 45.672 151.895 44.808C152.791 43.944 153.239 42.808 153.239 41.4C153.239 40.344 152.855 39.48 152.087 38.808C151.351 38.104 149.879 37.752 147.671 37.752H144.119C143.095 37.752 142.103 37.672 141.143 37.512C140.183 37.352 139.399 37.016 138.791 36.504C138.183 35.992 137.879 35.208 137.879 34.152C137.879 33.064 138.327 32.024 139.223 31.032C140.119 30.008 141.767 28.968 144.167 27.912L144.743 28.344C143.655 28.92 142.711 29.512 141.911 30.12C141.111 30.696 140.711 31.384 140.711 32.184C140.711 33.208 141.479 33.72 143.015 33.72H149.015C150.359 33.72 151.591 33.912 152.711 34.296C153.863 34.68 154.791 35.288 155.495 36.12C156.199 36.952 156.551 38.04 156.551 39.384C156.551 40.888 156.071 42.296 155.111 43.608C154.151 44.92 152.711 45.976 150.791 46.776C148.903 47.608 146.551 48.024 143.735 48.024ZM143.975 28.776C142.407 28.776 140.983 28.52 139.703 28.008C138.423 27.464 137.415 26.632 136.679 25.512C135.943 24.392 135.575 22.952 135.575 21.192C135.575 19.432 135.943 17.992 136.679 16.872C137.415 15.752 138.423 14.936 139.703 14.424C140.983 13.88 142.407 13.608 143.975 13.608C145.575 13.608 146.999 13.88 148.247 14.424C149.527 14.936 150.535 15.752 151.271 16.872C152.007 17.992 152.375 19.432 152.375 21.192C152.375 22.952 152.007 24.392 151.271 25.512C150.535 26.632 149.527 27.464 148.247 28.008C146.999 28.52 145.575 28.776 143.975 28.776ZM143.975 27.912C145.191 27.912 146.135 27.432 146.807 26.472C147.511 25.512 147.863 23.752 147.863 21.192C147.863 18.632 147.511 16.872 146.807 15.912C146.135 14.952 145.191 14.472 143.975 14.472C142.791 14.472 141.847 14.952 141.143 15.912C140.439 16.872 140.087 18.632 140.087 21.192C140.087 23.752 140.439 25.512 141.143 26.472C141.847 27.432 142.791 27.912 143.975 27.912ZM150.887 17.592L150.023 17.256C150.471 16.168 151.239 15.208 152.327 14.376C153.415 13.544 154.551 13.128 155.735 13.128C156.567 13.128 157.239 13.368 157.751 13.848C158.263 14.296 158.519 14.984 158.519 15.912C158.519 16.904 158.247 17.608 157.703 18.024C157.191 18.408 156.663 18.6 156.119 18.6C155.639 18.6 155.191 18.44 154.775 18.12C154.359 17.768 154.119 17.224 154.055 16.488C153.991 15.752 154.215 14.808 154.727 13.656L155.351 13.8C154.007 14.312 153.047 14.856 152.471 15.432C151.895 15.976 151.367 16.696 150.887 17.592Z" fill="currentColor"/>
</svg>
