<svg xmlns="http://www.w3.org/2000/svg" version="1.1" xmlns:xlink="http://www.w3.org/1999/xlink" xmlns:svgjs="http://svgjs.com/svgjs" width="56" height="50"><svg width="56" height="50" viewBox="0 0 56 50" fill="none" xmlns="http://www.w3.org/2000/svg">
<path d="M17.1813 0.428589C19.5586 0.428589 21.5036 0.78861 23.0164 1.50865C24.5653 2.19269 25.934 3.00274 27.1227 3.9388C27.843 4.47883 28.3833 4.55083 28.7435 4.15481C29.1397 3.72278 29.4099 2.73273 29.554 1.18464H30.7966C30.7246 2.51671 30.6706 4.13681 30.6346 6.04492C30.5985 7.95303 30.5805 10.4732 30.5805 13.6054H29.3379C29.0857 12.0573 28.8516 10.8332 28.6355 9.93314C28.4194 8.99709 28.1492 8.20504 27.825 7.557C27.5369 6.90897 27.1407 6.26093 26.6364 5.61289C25.5198 4.1368 24.115 3.07474 22.4221 2.4267C20.7292 1.74267 18.9462 1.40065 17.0732 1.40065C15.3083 1.40065 13.7054 1.85067 12.2646 2.75073C10.8599 3.61478 9.63521 4.87485 8.59064 6.53095C7.5821 8.18704 6.78967 10.1852 6.21336 12.5253C5.67307 14.8654 5.40292 17.4936 5.40292 20.4098C5.40292 23.4339 5.70909 26.1161 6.32142 28.4562C6.93375 30.7604 7.7802 32.7045 8.86079 34.2886C9.97739 35.8726 11.2741 37.0787 12.7509 37.9068C14.2637 38.6988 15.8846 39.0948 17.6135 39.0948C19.2344 39.0948 20.9273 38.7708 22.6923 38.1228C24.4572 37.4747 25.844 36.4307 26.8525 34.9906C27.6449 33.9465 28.1852 32.8125 28.4734 31.5884C28.7976 30.3643 29.0857 28.6542 29.3379 26.4581H30.5805C30.5805 29.7343 30.5985 32.3804 30.6346 34.3966C30.6706 36.3767 30.7246 38.0508 30.7966 39.4189H29.554C29.4099 37.8708 29.1578 36.8987 28.7976 36.5027C28.4734 36.1067 27.9151 36.1607 27.1227 36.6647C25.7899 37.6007 24.3672 38.4288 22.8544 39.1488C21.3776 39.8329 19.4685 40.1749 17.1273 40.1749C13.7054 40.1749 10.6978 39.4009 8.10438 37.8528C5.547 36.3047 3.54792 34.0725 2.10714 31.1564C0.70238 28.2402 0 24.73 0 20.6258C0 16.5935 0.738399 13.0653 2.2152 10.0411C3.692 7.01697 5.70909 4.65884 8.26647 2.96674C10.8599 1.27464 13.8315 0.428589 17.1813 0.428589Z" fill="black"></path>
<path d="M39.359 49.5714C37.45 49.5714 35.649 49.3734 33.9561 48.9774C32.2632 48.5814 30.8944 47.9514 29.8499 47.0873C28.8413 46.2593 28.337 45.1972 28.337 43.9011C28.337 42.641 28.8413 41.561 29.8499 40.6609C30.8584 39.7609 32.2272 39.0768 33.9561 38.6088L34.2803 39.4729C33.4878 39.7249 32.8575 40.2289 32.3892 40.9849C31.921 41.741 31.6869 42.587 31.6869 43.5231C31.6869 45.1792 32.4433 46.4393 33.9561 47.3033C35.5049 48.2034 37.504 48.6534 39.9533 48.6534C41.5742 48.6534 43.1591 48.4374 44.7079 48.0054C46.2567 47.6093 47.5354 46.9253 48.544 45.9532C49.5525 44.9812 50.0568 43.7031 50.0568 42.119C50.0568 40.9309 49.6246 39.9589 48.7601 39.2028C47.9316 38.4108 46.2747 38.0148 43.7894 38.0148H39.7912C38.6386 38.0148 37.522 37.9248 36.4414 37.7448C35.3608 37.5647 34.4784 37.1867 33.794 36.6107C33.1096 36.0347 32.7674 35.1526 32.7674 33.9645C32.7674 32.7405 33.2717 31.5704 34.2803 30.4543C35.2888 29.3023 37.1438 28.1322 39.8453 26.9441L40.4936 27.4302C39.269 28.0782 38.2064 28.7442 37.3059 29.4283C36.4054 30.0763 35.9552 30.8504 35.9552 31.7504C35.9552 32.9025 36.8196 33.4785 38.5486 33.4785H45.3022C46.815 33.4785 48.2018 33.6945 49.4625 34.1265C50.7592 34.5586 51.8037 35.2426 52.5962 36.1787C53.3886 37.1147 53.7848 38.3388 53.7848 39.8509C53.7848 41.543 53.2445 43.1271 52.1639 44.6032C51.0833 46.0792 49.4625 47.2673 47.3013 48.1674C45.1762 49.1034 42.5287 49.5714 39.359 49.5714ZM39.6292 27.9162C37.8642 27.9162 36.2613 27.6282 34.8206 27.0521C33.3798 26.4401 32.2452 25.504 31.4167 24.244C30.5883 22.9839 30.174 21.3638 30.174 19.3837C30.174 17.4036 30.5883 15.7835 31.4167 14.5234C32.2452 13.2633 33.3798 12.3453 34.8206 11.7692C36.2613 11.1572 37.8642 10.8512 39.6292 10.8512C41.4301 10.8512 43.033 11.1572 44.4378 11.7692C45.8785 12.3453 47.0131 13.2633 47.8416 14.5234C48.67 15.7835 49.0843 17.4036 49.0843 19.3837C49.0843 21.3638 48.67 22.9839 47.8416 24.244C47.0131 25.504 45.8785 26.4401 44.4378 27.0521C43.033 27.6282 41.4301 27.9162 39.6292 27.9162ZM39.6292 26.9441C40.9979 26.9441 42.0605 26.4041 42.8169 25.324C43.6093 24.244 44.0055 22.2639 44.0055 19.3837C44.0055 16.5035 43.6093 14.5234 42.8169 13.4433C42.0605 12.3633 40.9979 11.8233 39.6292 11.8233C38.2964 11.8233 37.2339 12.3633 36.4414 13.4433C35.649 14.5234 35.2528 16.5035 35.2528 19.3837C35.2528 22.2639 35.649 24.244 36.4414 25.324C37.2339 26.4041 38.2964 26.9441 39.6292 26.9441ZM47.4094 15.3335L46.4368 14.9554C46.9411 13.7314 47.8056 12.6513 49.0302 11.7152C50.2549 10.7792 51.5336 10.3112 52.8663 10.3112C53.8028 10.3112 54.5592 10.5812 55.1355 11.1212C55.7118 11.6252 56 12.3993 56 13.4433C56 14.5594 55.6938 15.3515 55.0815 15.8195C54.5052 16.2515 53.9109 16.4675 53.2985 16.4675C52.7582 16.4675 52.254 16.2875 51.7857 15.9275C51.3175 15.5315 51.0473 14.9194 50.9753 14.0914C50.9032 13.2633 51.1554 12.2013 51.7317 10.9052L52.4341 11.0672C50.9213 11.6432 49.8407 12.2553 49.1923 12.9033C48.544 13.5154 47.9496 14.3254 47.4094 15.3335Z" fill="black"></path>
</svg><style>@media (prefers-color-scheme: light) { :root { filter: none; } }
@media (prefers-color-scheme: dark) { :root { filter: invert(100%); } }
</style></svg>