<svg width="106" height="54" viewBox="0 0 106 54" fill="none" xmlns="http://www.w3.org/2000/svg">
<path d="M17.0471 3.97319C19.4058 3.97319 21.3357 4.33057 22.8367 5.04533C24.3734 5.72436 25.7315 6.52847 26.9109 7.45766C27.6256 7.99373 28.1617 8.06521 28.5191 7.67209C28.9122 7.24323 29.1802 6.26043 29.3232 4.72369H30.5561C30.4847 6.046 30.4311 7.65422 30.3953 9.54834C30.3596 11.4425 30.3417 13.9441 30.3417 17.0534H29.1088C28.8586 15.5166 28.6263 14.3015 28.4119 13.4081C28.1974 12.4789 27.9294 11.6926 27.6077 11.0493C27.3218 10.4061 26.9287 9.76277 26.4284 9.11948C25.3205 7.65422 23.9267 6.59994 22.247 5.95666C20.5673 5.27763 18.7983 4.93812 16.9399 4.93812C15.1887 4.93812 13.5984 5.38484 12.1689 6.2783C10.7751 7.13602 9.55996 8.38685 8.52356 10.0308C7.52289 11.6748 6.73665 13.6582 6.16484 15.9812C5.62876 18.3042 5.36073 20.9131 5.36073 23.8079C5.36073 26.8099 5.6645 29.4724 6.27205 31.7954C6.8796 34.0826 7.71945 36.0125 8.79159 37.5849C9.89948 39.1574 11.1861 40.3547 12.6513 41.1766C14.1523 41.9629 15.7605 42.356 17.476 42.356C19.0842 42.356 20.7639 42.0344 22.5151 41.3911C24.2662 40.7478 25.6421 39.7114 26.6428 38.2818C27.4291 37.2454 27.9651 36.1197 28.251 34.9046C28.5727 33.6895 28.8586 31.9919 29.1088 29.8119H30.3417C30.3417 33.0641 30.3596 35.6908 30.3953 37.6922C30.4311 39.6578 30.4847 41.3196 30.5561 42.6776H29.3232C29.1802 41.1409 28.9301 40.176 28.5727 39.7828C28.251 39.3897 27.6971 39.4433 26.9109 39.9437C25.5885 40.8729 24.1769 41.6948 22.6759 42.4096C21.2106 43.0886 19.3165 43.4281 16.9935 43.4281C13.5984 43.4281 10.6142 42.6598 8.04109 41.123C5.50368 39.5863 3.52021 37.3705 2.09068 34.4757C0.696895 31.5809 0 28.0965 0 24.0223C0 20.0196 0.732633 16.5173 2.1979 13.5153C3.66316 10.5133 5.6645 8.17242 8.20191 6.49273C10.7751 4.81303 13.7235 3.97319 17.0471 3.97319Z" fill="currentColor"/>
<path d="M39.0516 52.7558C37.1575 52.7558 35.3706 52.5592 33.6909 52.1661C32.0112 51.773 30.6532 51.1476 29.6168 50.2899C28.6161 49.4679 28.1158 48.4136 28.1158 47.127C28.1158 45.8762 28.6161 44.8041 29.6168 43.9106C30.6174 43.0172 31.9755 42.3381 33.6909 41.8735L34.0126 42.7312C33.2263 42.9814 32.6009 43.4818 32.1363 44.2323C31.6717 44.9828 31.4394 45.8226 31.4394 46.7518C31.4394 48.3957 32.1899 49.6466 33.6909 50.5043C35.2277 51.3978 37.2111 51.8445 39.6413 51.8445C41.2495 51.8445 42.822 51.6301 44.3588 51.2012C45.8955 50.8081 47.1642 50.1291 48.1649 49.1641C49.1656 48.1992 49.6659 46.9305 49.6659 45.358C49.6659 44.1786 49.237 43.2137 48.3793 42.4632C47.5573 41.677 45.9134 41.2839 43.4474 41.2839H39.4805C38.3369 41.2839 37.229 41.1945 36.1569 41.0158C35.0847 40.8371 34.2091 40.4619 33.5301 39.8901C32.8511 39.3183 32.5116 38.4427 32.5116 37.2633C32.5116 36.0482 33.0119 34.8867 34.0126 33.7788C35.0132 32.6352 36.8537 31.4737 39.5341 30.2944L40.1774 30.7768C38.9623 31.4201 37.908 32.0813 37.0146 32.7603C36.1211 33.4036 35.6744 34.172 35.6744 35.0654C35.6744 36.209 36.5321 36.7808 38.2475 36.7808H44.9484C46.4494 36.7808 47.8254 36.9953 49.0762 37.4241C50.3628 37.853 51.3992 38.532 52.1854 39.4612C52.9717 40.3904 53.3648 41.6055 53.3648 43.1065C53.3648 44.7862 52.8287 46.3587 51.7566 47.8239C50.6844 49.2892 49.0762 50.4686 46.9319 51.362C44.8234 52.2912 42.1966 52.7558 39.0516 52.7558ZM39.3197 31.2593C37.5685 31.2593 35.9782 30.9734 34.5486 30.4016C33.1191 29.794 31.9933 28.8648 31.1714 27.614C30.3494 26.3632 29.9384 24.7549 29.9384 22.7893C29.9384 20.8237 30.3494 19.2155 31.1714 17.9647C31.9933 16.7139 33.1191 15.8025 34.5486 15.2307C35.9782 14.6232 37.5685 14.3194 39.3197 14.3194C41.1066 14.3194 42.6969 14.6232 44.0907 15.2307C45.5203 15.8025 46.646 16.7139 47.468 17.9647C48.29 19.2155 48.701 20.8237 48.701 22.7893C48.701 24.7549 48.29 26.3632 47.468 27.614C46.646 28.8648 45.5203 29.794 44.0907 30.4016C42.6969 30.9734 41.1066 31.2593 39.3197 31.2593ZM39.3197 30.2944C40.6777 30.2944 41.732 29.7583 42.4825 28.6861C43.2687 27.614 43.6619 25.6484 43.6619 22.7893C43.6619 19.9303 43.2687 17.9647 42.4825 16.8925C41.732 15.8204 40.6777 15.2843 39.3197 15.2843C37.9974 15.2843 36.9431 15.8204 36.1569 16.8925C35.3706 17.9647 34.9775 19.9303 34.9775 22.7893C34.9775 25.6484 35.3706 27.614 36.1569 28.6861C36.9431 29.7583 37.9974 30.2944 39.3197 30.2944ZM47.0391 18.7688L46.0742 18.3935C46.5745 17.1784 47.4322 16.1063 48.6473 15.1771C49.8624 14.2479 51.1311 13.7833 52.4535 13.7833C53.3827 13.7833 54.1332 14.0514 54.705 14.5874C55.2768 15.0878 55.5627 15.8561 55.5627 16.8925C55.5627 18.0004 55.2589 18.7867 54.6514 19.2513C54.0795 19.6801 53.4899 19.8945 52.8823 19.8945C52.3462 19.8945 51.8459 19.7159 51.3813 19.3585C50.9167 18.9654 50.6487 18.3578 50.5772 17.5358C50.5057 16.7139 50.7559 15.6596 51.3277 14.373L52.0246 14.5338C50.5236 15.1056 49.4515 15.7132 48.8082 16.3565C48.1649 16.964 47.5752 17.7681 47.0391 18.7688Z" fill="currentColor"/>
<path d="M78.5238 4.72369C78.3808 5.97453 78.2736 7.18962 78.2021 8.36898C78.1664 9.54834 78.1485 10.4418 78.1485 11.0493C78.1485 11.6926 78.1664 12.3181 78.2021 12.9256C78.2379 13.4974 78.2736 13.9799 78.3093 14.373H77.0764C76.8619 12.2644 76.5582 10.6026 76.165 9.38752C75.7719 8.13669 75.0929 7.2611 74.128 6.76077C73.1988 6.22469 71.7871 5.95666 69.893 5.95666H65.4436C64.2285 5.95666 63.2993 6.06387 62.656 6.2783C62.0485 6.45699 61.6375 6.86798 61.423 7.51127C61.2086 8.11882 61.1014 9.08375 61.1014 10.4061V36.9953C61.1014 38.2818 61.2086 39.2468 61.423 39.8901C61.6375 40.5333 62.0485 40.9622 62.656 41.1766C63.2993 41.3553 64.2285 41.4447 65.4436 41.4447H69.3569C71.6084 41.4447 73.306 41.1409 74.4496 40.5333C75.629 39.9258 76.4688 38.943 76.9692 37.5849C77.5052 36.1912 77.8983 34.3149 78.1485 31.9562H79.3815C79.2743 32.9211 79.2207 34.2077 79.2207 35.8159C79.2207 36.4949 79.2385 37.4777 79.2743 38.7643C79.3457 40.0151 79.453 41.3196 79.5959 42.6776C77.7733 42.6062 75.7183 42.5704 73.4311 42.5704C71.1438 42.5347 69.1068 42.5168 67.3198 42.5168C66.5336 42.5168 65.5151 42.5168 64.2642 42.5168C63.0491 42.5168 61.7268 42.5347 60.2973 42.5704C58.8678 42.5704 57.4204 42.5883 55.9551 42.624C54.4898 42.624 53.0961 42.6419 51.7737 42.6776V41.6055C52.9888 41.534 53.9002 41.3911 54.5077 41.1766C55.151 40.9622 55.5799 40.5333 55.7943 39.8901C56.0087 39.2468 56.1159 38.2818 56.1159 36.9953V10.4061C56.1159 9.08375 56.0087 8.11882 55.7943 7.51127C55.5799 6.86798 55.151 6.43912 54.5077 6.22469C53.9002 5.97453 52.9888 5.83157 51.7737 5.79584V4.72369C53.0961 4.75943 54.4898 4.79517 55.9551 4.8309C57.4204 4.8309 58.8678 4.84877 60.2973 4.88451C61.7268 4.88451 63.0491 4.88451 64.2642 4.88451C65.5151 4.88451 66.5336 4.88451 67.3198 4.88451C68.9638 4.88451 70.8222 4.88451 72.895 4.88451C75.0036 4.84877 76.8798 4.79517 78.5238 4.72369ZM69.3033 23.0574C69.3033 23.0574 69.3033 23.2361 69.3033 23.5935C69.3033 23.9508 69.3033 24.1295 69.3033 24.1295H59.4932C59.4932 24.1295 59.4932 23.9508 59.4932 23.5935C59.4932 23.2361 59.4932 23.0574 59.4932 23.0574H69.3033ZM70.8579 15.9812C70.715 18.0183 70.6435 19.5729 70.6435 20.6451C70.6792 21.7172 70.6971 22.7 70.6971 23.5935C70.6971 24.4869 70.715 25.4697 70.7507 26.5418C70.7865 27.614 70.8758 29.1686 71.0187 31.2057H69.7858C69.6428 30.0621 69.4641 28.9542 69.2497 27.882C69.071 26.7741 68.6422 25.8807 67.9631 25.2017C67.3198 24.4869 66.212 24.1295 64.6395 24.1295V23.0574C65.8188 23.0574 66.7123 22.8251 67.3198 22.3605C67.9631 21.8601 68.4277 21.2347 68.7136 20.4842C68.9995 19.7337 69.1961 18.9654 69.3033 18.1791C69.4105 17.3571 69.5177 16.6245 69.625 15.9812H70.8579Z" fill="currentColor"/>
<path d="M101.702 0.649536V36.8344C101.702 38.4427 101.988 39.6399 102.56 40.4261C103.167 41.1766 104.24 41.5519 105.776 41.5519V42.6776C104.668 42.5704 103.561 42.5168 102.453 42.5168C101.416 42.5168 100.416 42.5704 99.4507 42.6776C98.5215 42.7849 97.6638 42.9814 96.8776 43.2673V7.08241C96.8776 5.47419 96.5917 4.29483 96.0198 3.54433C95.448 2.75809 94.3759 2.36497 92.8034 2.36497V1.23921C93.947 1.34643 95.0549 1.40004 96.1271 1.40004C97.1635 1.40004 98.1463 1.34643 99.0755 1.23921C100.04 1.09626 100.916 0.899704 101.702 0.649536ZM90.4447 14.3194C92.0172 14.3194 93.4824 14.6946 94.8405 15.4451C96.2343 16.1956 97.1635 17.4822 97.6281 19.3049L96.9312 19.8409C96.4308 18.3399 95.6446 17.2499 94.5724 16.5709C93.536 15.8919 92.3031 15.5524 90.8736 15.5524C88.765 15.5524 86.996 16.6424 85.5664 18.8224C84.1726 21.0024 83.4936 24.3618 83.5294 28.9006C83.5294 31.7954 83.7974 34.2077 84.3335 36.1376C84.9053 38.0317 85.7272 39.4612 86.7994 40.4261C87.9073 41.3553 89.2475 41.8199 90.8199 41.8199C92.3209 41.8199 93.679 41.1766 94.8941 39.8901C96.1092 38.6035 96.8418 36.7094 97.092 34.2077L97.7353 34.9582C97.4494 37.6743 96.5738 39.765 95.1085 41.2302C93.679 42.6955 91.7313 43.4281 89.2653 43.4281C87.0496 43.4281 85.1018 42.8921 83.4221 41.8199C81.7782 40.7478 80.5095 39.1396 79.616 36.9953C78.7583 34.851 78.3294 32.1527 78.3294 28.9006C78.3294 25.6484 78.8834 22.9502 79.9913 20.8059C81.1349 18.6258 82.618 16.9998 84.4407 15.9276C86.2991 14.8555 88.3004 14.3194 90.4447 14.3194Z" fill="currentColor"/>
</svg>
